<svg width="36" height="35" viewBox="0 0 36 35" fill="none" xmlns="http://www.w3.org/2000/svg">
<path d="M3.74485 29.1897C2.67265 30.4528 2.82743 32.346 4.09058 33.4182C5.35373 34.4904 7.24691 34.3356 8.31911 33.0725L6.03198 31.1311L3.74485 29.1897ZM32.9005 2.75578C32.7655 1.10443 31.3174 -0.124794 29.666 0.0102215L2.75581 2.21043C1.10447 2.34544 -0.124757 3.79357 0.0102582 5.44492C0.145274 7.09626 1.5934 8.32549 3.24475 8.19047L27.1649 6.23473L29.1207 30.1549C29.2557 31.8063 30.7038 33.0355 32.3552 32.9005C34.0065 32.7655 35.2357 31.3173 35.1007 29.666L32.9005 2.75578ZM6.03198 31.1311L8.31911 33.0725L32.1976 4.94165L29.9105 3.00024L27.6234 1.05884L3.74485 29.1897L6.03198 31.1311Z" fill="white"/>
</svg>
